<svg width="2291" height="687" viewBox="0 0 2291 687" fill="none" xmlns="http://www.w3.org/2000/svg">
<path d="M64.2668 2.38131C34.1335 10.3813 10.4002 34.248 2.66685 64.5146C0.133516 74.5146 0.000182899 80.1146 0.000182899 284.915C0.000182899 510.648 -0.13315 506.781 6.80018 531.715C17.0668 568.515 35.0668 599.315 61.8668 625.715C84.6668 648.248 112.134 665.181 141.6 674.915C176.8 686.648 174.4 686.648 403.334 686.115L600.667 685.715L610.8 682.781C646.933 672.515 671.733 648.115 682.933 611.715L686 601.715L686.4 402.381C686.667 262.115 686.4 198.115 685.333 186.515C680.933 137.315 659.867 92.7813 624.933 58.3813C597.333 31.1813 566.533 14.248 525.333 3.98131L511.333 0.514645L292.667 0.114645C80.8002 -0.152021 73.7335 -0.152021 64.2668 2.38131ZM419.867 117.715C463.067 124.515 504.267 144.115 533.067 171.448C547.067 184.915 546.933 185.181 526.267 206.781C506.933 227.048 506.8 227.048 494.4 216.648C471.2 197.048 451.067 186.115 426.667 179.848C388.534 170.248 349.734 171.315 313.867 183.181C263.067 199.848 224.8 238.248 208.8 288.381C197.467 324.248 198 367.315 210.133 401.315C230.4 457.581 276.534 496.381 337.6 508.381C360.667 513.048 398.8 512.381 422.134 506.915C442.134 502.381 468.8 491.048 475.467 484.381L478.667 481.181V440.648C478.667 400.381 478.667 400.115 481.733 397.315C484.533 394.648 486 394.515 509.6 394.515C531.867 394.515 534.8 394.781 537.6 397.048L540.667 399.448L541.067 454.248L541.467 508.915L536.533 514.381C530.8 520.781 507.733 536.381 494.4 543.181C470 555.448 439.734 564.648 411.334 568.381C391.6 570.915 354.267 570.915 336 568.381C306.4 564.248 281.867 556.248 254.667 542.248C195.867 511.848 154.8 456.115 141.334 388.381C137.2 367.981 136.267 332.915 139.2 310.915C149.067 236.248 191.334 175.448 256.933 141.715C284.4 127.581 311.467 119.848 349.334 115.181C359.6 113.981 406.667 115.581 419.867 117.715ZM589.067 294.381C597.333 299.448 598.667 303.581 598.667 323.715C598.667 343.848 597.333 347.981 589.067 353.048C584.8 355.581 582.133 355.715 507.2 355.715H429.734L425.334 352.648C416.134 346.515 415.334 344.248 415.334 323.981C415.334 307.315 415.6 305.315 418.4 300.915C424.134 291.448 421.2 291.715 507.333 291.715C582.133 291.715 584.8 291.848 589.067 294.381Z" fill="#CB2026"/>
<path d="M1434.67 144.648V189.448L1426.27 181.448C1412.13 167.848 1396.93 161.981 1376 161.981C1353.33 161.981 1337.33 168.781 1320.53 185.581C1307.87 198.248 1300.53 211.581 1295.87 231.048C1291.73 247.581 1291.73 275.581 1295.87 291.048C1306.4 331.315 1334.93 357.048 1371.87 359.315C1393.2 360.648 1411.07 353.848 1426.27 338.648L1434.67 330.248V342.915V355.715H1468H1501.33V227.715V99.7147H1468H1434.67V144.648ZM1412.93 220.781C1442.8 236.115 1442.93 285.448 1413.07 300.248C1407.6 303.048 1404.27 303.715 1396.8 303.715C1378.27 303.581 1365.07 293.181 1359.47 274.381C1352.4 250.781 1363.47 226.915 1384.93 218.915C1392 216.248 1405.87 217.181 1412.93 220.781Z" fill="#302C2B"/>
<path d="M918.934 107.048C888 112.648 865.334 124.648 844.534 146.648C815.6 177.314 804.4 221.714 814.667 265.048C818.267 279.981 829.867 303.314 838.934 313.848C865.467 344.514 900.934 359.981 944.667 359.981C979.334 360.114 1011.07 350.514 1039.33 331.314L1050 324.114L1050.4 267.981L1050.67 211.714H994.667H938.667V236.381V261.048H962.667H986.667V276.914V292.781L980.4 295.448C968.8 300.381 962.267 301.581 947.334 301.448C925.6 301.314 912.267 295.981 898.934 281.848C870.934 252.381 875.734 199.848 908.267 176.914C920.534 168.381 928.8 165.848 945.334 165.981C963.6 165.981 976.4 169.981 992 180.514C1002.67 187.581 1003.2 187.848 1005.33 185.448C1008.8 181.848 1040.67 143.314 1041.73 141.581C1042.8 139.848 1028 128.514 1016 121.981C990.4 107.848 949.2 101.581 918.934 107.048Z" fill="#302C2B"/>
<path d="M1999.6 117.981C1999.07 118.381 1998.67 129.181 1998.67 141.848V164.915L1987.73 165.315L1976.67 165.715V192.381V219.048L1987.73 219.448L1998.67 219.848V260.781C1998.67 304.381 1999.6 314.915 2004.13 327.181C2007.87 336.915 2017.73 347.715 2027.33 352.515C2046.67 361.848 2079.6 361.448 2102.8 351.581L2109.33 348.781V322.781C2109.33 298.515 2109.2 296.781 2107.07 297.715C2094.93 302.781 2080.13 303.848 2073.2 300.248C2066 296.515 2065.33 292.781 2065.33 254.381V219.715H2087.33H2109.33V192.381V165.048H2087.33H2065.33V141.048V117.048H2032.93C2015.07 117.048 2000 117.448 1999.6 117.981Z" fill="#302C2B"/>
<path d="M1604 161.848C1569.73 166.915 1546 185.848 1535.33 216.648C1530.4 230.648 1528.67 247.848 1530.53 262.648C1533.47 285.715 1540.27 300.115 1555.2 315.181C1570.53 330.515 1590.13 338.248 1614 338.381C1633.87 338.381 1650 331.848 1665.2 317.715L1673.73 309.715L1672.8 319.981C1671.33 336.381 1668.8 342.915 1660.93 351.048C1650.67 361.315 1642.53 364.115 1622 364.248C1611.2 364.248 1602.53 363.448 1595.33 361.848C1584.13 359.315 1567.6 353.181 1560.53 349.048L1556.27 346.648L1545.87 368.515C1540.27 380.515 1535.73 390.648 1536.13 390.915C1537.87 392.515 1548.8 397.315 1558.8 400.781C1593.47 413.048 1640.8 415.848 1672.8 407.715C1696.8 401.581 1717.2 386.515 1726.4 368.115C1737.47 346.248 1738.93 330.915 1738.4 237.715L1738 165.715L1705.07 165.315L1672 165.048V176.381V187.715L1663.07 180.381C1658 176.248 1650.4 171.048 1645.87 168.915C1634.4 163.315 1615.87 160.115 1604 161.848ZM1650.8 216.648C1664.8 222.915 1672.4 234.781 1672.53 250.381C1672.53 270.915 1658.27 285.715 1636.8 287.315C1620.8 288.648 1605.2 280.515 1598.4 267.315C1590.13 251.048 1597.2 226.781 1612.53 218.781C1624.53 212.515 1639.47 211.715 1650.8 216.648Z" fill="#302C2B"/>
<path d="M1849.33 162.248C1817.33 166.781 1790.93 185.715 1777.33 213.715C1769.2 230.648 1767.47 238.781 1767.33 261.048C1767.33 283.581 1769.07 291.715 1777.47 308.915C1788.4 331.048 1810 348.248 1836.8 355.981C1845.73 358.648 1850.4 359.048 1868 359.048C1891.87 359.048 1899.87 357.448 1916.67 349.048C1927.6 343.715 1939.2 334.781 1946.4 326.248L1950.53 321.581L1933.73 307.581C1924.4 299.981 1916.13 293.315 1915.2 292.648C1914.13 292.115 1911.73 293.181 1909.07 295.448C1896.4 306.515 1883.47 311.048 1868 309.981C1855.87 309.181 1846.67 305.048 1840 297.581C1835.73 292.648 1830.8 283.315 1830.67 279.981C1830.67 278.781 1844.27 278.381 1894 278.381H1957.33V263.981C1957.33 255.981 1956.67 245.981 1955.87 241.581C1948.93 201.848 1924.93 173.981 1890.13 165.048C1878.67 162.115 1859.6 160.781 1849.33 162.248ZM1872.53 211.848C1882.67 214.648 1892.67 227.315 1895.07 240.648L1896 245.048H1862.53H1829.07L1830 240.648C1832.67 228.515 1843.07 215.048 1852 212.115C1858.13 210.248 1866.13 210.115 1872.53 211.848Z" fill="#302C2B"/>
<path d="M1151.87 163.848C1137.07 165.048 1119.73 168.781 1105.6 173.848C1094.27 177.981 1094.53 174.648 1103.2 203.715C1107.2 217.315 1109.47 223.048 1110.8 222.915C1111.87 222.781 1118.13 221.048 1124.67 218.915C1135.47 215.581 1138.67 215.181 1157.33 215.181C1180.53 215.048 1184.93 216.248 1192.93 225.581C1197.87 231.048 1202.27 247.715 1198.93 247.715C1198.27 247.715 1193.07 246.381 1187.2 244.915C1178.67 242.515 1172.67 241.981 1155.33 241.848C1131.07 241.715 1122.8 243.448 1107.6 251.315C1087.2 262.115 1076.8 283.981 1080 309.315C1083.87 339.315 1104.67 357.181 1138.13 359.315C1158.67 360.648 1176.27 355.315 1191.07 343.181L1198.67 337.048V346.381V355.715H1232.13H1265.6L1264.93 291.315C1264.27 219.848 1264.13 217.981 1255.2 200.915C1243.87 179.448 1221.47 167.048 1188 163.715C1173.73 162.248 1170.13 162.248 1151.87 163.848ZM1195.07 275.848C1200 277.448 1200 277.448 1200 284.915C1200 294.915 1198.13 300.781 1193.2 306.781C1185.47 316.115 1171.2 320.381 1158.8 317.048C1137.47 311.315 1138.53 282.115 1160.13 274.915C1166.93 272.781 1186.93 273.315 1195.07 275.848Z" fill="#302C2B"/>
<path d="M2183.2 164.781C2157.47 171.315 2140.13 187.181 2134.53 209.448C2132 219.848 2133.47 239.048 2137.6 247.981C2144.27 262.515 2161.07 274.248 2185.33 281.448C2191.6 283.315 2202.67 286.781 2210.13 288.915C2226.27 293.848 2230.67 296.781 2230.67 302.915C2230.67 310.915 2227.2 312.381 2210.13 312.248C2192.4 312.115 2179.6 308.515 2160.53 298.381L2148.27 291.848L2136 311.848C2121.6 335.181 2120.93 331.848 2143.33 343.048C2168.27 355.448 2194 360.915 2220.53 359.315C2266.8 356.515 2292.13 332.781 2290.4 293.848C2289.07 264.781 2273.73 250.648 2227.87 236.648C2204.13 229.315 2196.8 226.248 2194.13 221.981C2191.6 218.248 2192.93 212.648 2196.93 210.648C2207.2 205.448 2231.07 209.715 2255.33 221.181C2260.13 223.448 2264.4 225.048 2264.67 224.915C2267.07 222.381 2286.4 184.381 2285.73 183.448C2284.13 180.648 2259.6 170.115 2247.07 166.781C2229.33 162.115 2197.6 161.181 2183.2 164.781Z" fill="#302C2B"/>
<path d="M862.667 469.048V479.715H884H905.334V536.382V593.182L917.067 592.782L928.667 592.382L929.067 535.982L929.334 479.715H950.667H972V469.048V458.382H917.334H862.667V469.048Z" fill="#CB2026"/>
<path d="M1047.07 523.315C1031.47 559.181 1018.4 589.448 1017.87 590.648C1017.07 592.781 1018.13 593.048 1028.8 593.048H1040.67L1047.2 577.048L1053.87 561.048H1086.13H1118.4L1124.93 576.648L1131.6 592.381L1143.73 592.781C1150.53 592.915 1156 592.915 1156 592.781C1156 592.515 1142.93 562.381 1126.8 525.715L1097.73 459.048L1086.53 458.648L1075.33 458.381L1047.07 523.315ZM1098.13 513.315C1104.27 527.448 1109.07 539.181 1108.8 539.315C1108.53 539.581 1098.13 539.581 1085.73 539.448L1063.07 539.048L1074.4 512.648C1080.53 498.115 1086 486.648 1086.4 486.915C1086.8 487.315 1092 499.181 1098.13 513.315Z" fill="#CB2026"/>
<path d="M1229.33 525.715V593.048H1240.67H1252V545.581C1252 516.515 1252.53 498.515 1253.2 499.048C1254 499.448 1270.8 520.781 1290.8 546.381L1327.07 593.048H1336.8H1346.67V525.715V458.381H1335.33H1324V504.381C1324 529.715 1323.6 550.381 1323.07 550.381C1322.4 550.248 1306.13 529.715 1286.67 504.648L1251.2 459.048L1240.27 458.648L1229.33 458.248V525.715Z" fill="#CB2026"/>
<path d="M1428.93 459.315C1428.4 459.715 1428 464.515 1428 469.981V479.715L1466.53 479.981L1504.93 480.381L1465.87 527.715L1426.67 575.048V583.981V593.048H1481.33H1536V582.381V571.715L1496.67 571.448L1457.33 571.048L1496.67 523.448L1536 475.981V467.181V458.381H1482.93C1453.73 458.381 1429.33 458.781 1428.93 459.315Z" fill="#CB2026"/>
<path d="M1635.07 523.315C1619.47 559.181 1606.4 589.448 1605.87 590.648C1605.07 592.781 1606.13 593.048 1616.8 593.048H1628.67L1635.2 577.048L1641.87 561.048H1674.13H1706.4L1712.93 576.648L1719.6 592.381L1731.73 592.781C1738.53 592.915 1744 592.915 1744 592.781C1744 592.515 1730.93 562.381 1714.8 525.715L1685.73 459.048L1674.53 458.648L1663.33 458.381L1635.07 523.315ZM1686.13 513.315C1692.27 527.448 1697.07 539.181 1696.8 539.315C1696.53 539.581 1686.13 539.581 1673.73 539.448L1651.07 539.048L1662.4 512.648C1668.53 498.115 1674 486.648 1674.4 486.915C1674.8 487.315 1680 499.181 1686.13 513.315Z" fill="#CB2026"/>
<path d="M1817.33 525.715V593.048H1828.67H1840V545.581C1840 516.515 1840.53 498.515 1841.2 499.048C1842 499.448 1858.8 520.781 1878.8 546.381L1915.07 593.048H1924.8H1934.67V525.715V458.381H1923.33H1912V504.381C1912 529.715 1911.6 550.381 1911.07 550.381C1910.4 550.248 1894.13 529.715 1874.67 504.648L1839.2 459.048L1828.27 458.648L1817.33 458.248V525.715Z" fill="#CB2026"/>
<path d="M2020 525.715V593.048H2032H2044L2043.73 525.981L2043.33 459.048L2031.73 458.648L2020 458.248V525.715Z" fill="#CB2026"/>
<path d="M2147.07 523.315C2131.47 559.181 2118.4 589.448 2117.87 590.648C2117.07 592.781 2118.13 593.048 2128.8 593.048H2140.67L2147.2 577.048L2153.87 561.048H2186.13H2218.4L2224.93 576.648L2231.6 592.381L2243.73 592.781C2250.53 592.915 2256 592.915 2256 592.781C2256 592.515 2242.93 562.381 2226.8 525.715L2197.73 459.048L2186.53 458.648L2175.33 458.381L2147.07 523.315ZM2198.13 513.315C2204.27 527.448 2209.07 539.181 2208.8 539.315C2208.53 539.581 2198.13 539.581 2185.73 539.448L2163.07 539.048L2174.4 512.648C2180.53 498.115 2186 486.648 2186.4 486.915C2186.8 487.315 2192 499.181 2198.13 513.315Z" fill="#CB2026"/>
</svg>
