<?xml version="1.0" standalone="no"?>
<!DOCTYPE svg PUBLIC "-//W3C//DTD SVG 20010904//EN" "http://www.w3.org/TR/2001/REC-SVG-20010904/DTD/svg10.dtd">
<svg version="1.0" xmlns="http://www.w3.org/2000/svg" width="4167.000000pt" height="4167.000000pt"
    viewBox="0 0 4167.000000 4167.000000" preserveAspectRatio="xMidYMid meet">

    <g transform="translate(0.000000,2407.000000) scale(0.100000,-0.100000)">
        <!-- Emblem -->
        <path fill="#cc2229" d="M11542 24040 c-226 -60 -404 -239 -462 -466 -19 -75 -20 -117 -20
-1653 0 -1693 -1 -1664 51 -1851 77 -276 212 -507 413 -705 171 -169 377 -296
598 -369 264 -88 246 -88 1963 -84 l1480 3 76 22 c271 77 457 260 541 533 l23
75 3 1495 c2 1052 0 1532 -8 1619 -33 369 -191 703 -453 961 -207 204 -438
331 -747 408 l-105 26 -1640 3 c-1589 2 -1642 2 -1713 -17z m2667 -865 c324
-51 633 -198 849 -403 105 -101 104 -103 -51 -265 -145 -152 -146 -152 -239
-74 -174 147 -325 229 -508 276 -286 72 -577 64 -846 -25 -381 -125 -668 -413
-788 -789 -85 -269 -81 -592 10 -847 152 -422 498 -713 956 -803 173 -35 459
-30 634 11 150 34 350 119 400 169 l24 24 0 304 c0 302 0 304 23 325 21 20 32
21 209 21 167 0 189 -2 210 -19 l23 -18 3 -411 3 -410 -37 -41 c-43 -48 -216
-165 -316 -216 -183 -92 -410 -161 -623 -189 -148 -19 -428 -19 -565 0 -222
31 -406 91 -610 196 -441 228 -749 646 -850 1154 -31 153 -38 416 -16 581 74
560 391 1016 883 1269 206 106 409 164 693 199 77 9 430 -3 529 -19z m1269
-1325 c62 -38 72 -69 72 -220 0 -151 -10 -182 -72 -220 -32 -19 -52 -20 -614
-20 l-581 0 -33 23 c-69 46 -75 63 -75 215 0 125 2 140 23 173 43 71 21 69
667 69 561 0 581 -1 613 -20z" />
        <!-- Gadget -->
        <path fill="#302c2b" d="M21820 22973 l0 -336 -63 60 c-106 102 -220 146 -377 146 -170 0
-290 -51 -416 -177 -95 -95 -150 -195 -185 -341 -31 -124 -31 -334 0 -450 79
-302 293 -495 570 -512 160 -10 294 41 408 155 l63 63 0 -95 0 -96 250 0 250
0 0 960 0 960 -250 0 -250 0 0 -337z m-163 -571 c224 -115 225 -485 1 -596
-41 -21 -66 -26 -122 -26 -139 1 -238 79 -280 220 -53 177 30 356 191 416 53
20 157 13 210 -14z" />
        <path fill="#302c2b" d="M17952 23255 c-232 -42 -402 -132 -558 -297 -217 -230 -301 -563
-224 -888 27 -112 114 -287 182 -366 199 -230 465 -346 793 -346 260 -1 498
71 710 215 l80 54 3 421 2 422 -420 0 -420 0 0 -185 0 -185 180 0 180 0 0
-119 0 -119 -47 -20 c-87 -37 -136 -46 -248 -45 -163 1 -263 41 -363 147 -210
221 -174 615 70 787 92 64 154 83 278 82 137 0 233 -30 350 -109 80 -53 84
-55 100 -37 26 27 265 316 273 329 8 13 -103 98 -193 147 -192 106 -501 153
-728 112z" />
        <path fill="#302c2b" d="M26057 23173 c-4 -3 -7 -84 -7 -179 l0 -173 -82 -3 -83 -3 0 -200 0
-200 83 -3 82 -3 0 -307 c0 -327 7 -406 41 -498 28 -73 102 -154 174 -190 145
-70 392 -67 566 7 l49 21 0 195 c0 182 -1 195 -17 188 -91 -38 -202 -46 -254
-19 -54 28 -59 56 -59 344 l0 260 165 0 165 0 0 205 0 205 -165 0 -165 0 0
180 0 180 -243 0 c-134 0 -247 -3 -250 -7z" />
        <path fill="#302c2b" d="M23090 22844 c-257 -38 -435 -180 -515 -411 -37 -105 -50 -234 -36
-345 22 -173 73 -281 185 -394 115 -115 262 -173 441 -174 149 0 270 49 384
155 l64 60 -7 -77 c-11 -123 -30 -172 -89 -233 -77 -77 -138 -98 -292 -99 -81
0 -146 6 -200 18 -84 19 -208 65 -261 96 l-32 18 -78 -164 c-42 -90 -76 -166
-73 -168 13 -12 95 -48 170 -74 260 -92 615 -113 855 -52 180 46 333 159 402
297 83 164 94 279 90 978 l-3 540 -247 3 -248 2 0 -85 0 -85 -67 55 c-38 31
-95 70 -129 86 -86 42 -225 66 -314 53z m351 -411 c105 -47 162 -136 163 -253
0 -154 -107 -265 -268 -277 -120 -10 -237 51 -288 150 -62 122 -9 304 106 364
90 47 202 53 287 16z" />
        <path fill="#302c2b" d="M24930 22841 c-240 -34 -438 -176 -540 -386 -61 -127 -74 -188 -75
-355 0 -169 13 -230 76 -359 82 -166 244 -295 445 -353 67 -20 102 -23 234
-23 179 0 239 12 365 75 82 40 169 107 223 171 l31 35 -126 105 c-70 57 -132
107 -139 112 -8 4 -26 -4 -46 -21 -95 -83 -192 -117 -308 -109 -91 6 -160 37
-210 93 -32 37 -69 107 -70 132 0 9 102 12 475 12 l475 0 0 108 c0 60 -5 135
-11 168 -52 298 -232 507 -493 574 -86 22 -229 32 -306 21z m174 -372 c76 -21
151 -116 169 -216 l7 -33 -251 0 -251 0 7 33 c20 91 98 192 165 214 46 14 106
15 154 2z" />
        <path fill="#302c2b" d="M19699 22829 c-111 -9 -241 -37 -347 -75 -85 -31 -83 -6 -18 -224 30
-102 47 -145 57 -144 8 1 55 14 104 30 81 25 105 28 245 28 174 1 207 -8 267
-78 37 -41 70 -166 45 -166 -5 0 -44 10 -88 21 -64 18 -109 22 -239 23 -182 1
-244 -12 -358 -71 -153 -81 -231 -245 -207 -435 29 -225 185 -359 436 -375
154 -10 286 30 397 121 l57 46 0 -70 0 -70 251 0 251 0 -5 483 c-5 536 -6 550
-73 678 -85 161 -253 254 -504 279 -107 11 -134 11 -271 -1z m324 -840 c37
-12 37 -12 37 -68 0 -75 -14 -119 -51 -164 -58 -70 -165 -102 -258 -77 -160
43 -152 262 10 316 51 16 201 12 262 -7z" />
        <path fill="#302c2b" d="M27434 22822 c-193 -49 -323 -168 -365 -335 -19 -78 -8 -222 23 -289
50 -109 176 -197 358 -251 47 -14 130 -40 186 -56 121 -37 154 -59 154 -105 0
-60 -26 -71 -154 -70 -133 1 -229 28 -372 104 l-92 49 -92 -150 c-108 -175
-113 -150 55 -234 187 -93 380 -134 579 -122 347 21 537 199 524 491 -10 218
-125 324 -469 429 -178 55 -233 78 -253 110 -19 28 -9 70 21 85 77 39 256 7
438 -79 36 -17 68 -29 70 -28 18 19 163 304 158 311 -12 21 -196 100 -290 125
-133 35 -371 42 -479 15z" />
        <!-- End of Gadgets -->
        <!-- Tanzania -->
        <path fill="#cc2229" d="M17530 20540 l0 -80 160 0 160 0 0 -425 0 -426 88 3 87 3 3 423 2
422 160 0 160 0 0 80 0 80 -410 0 -410 0 0 -80z" />
        <path fill="#cc2229" d="M18913 20133 c-117 -269 -215 -496 -219 -505 -6 -16 2 -18 82 -18
l89 0 49 120 50 120 242 0 242 0 49 -117 50 -118 91 -3 c51 -1 92 -1 92 0 0 2
-98 228 -219 503 l-218 500 -84 3 -84 2 -212 -487z m383 75 c46 -106 82 -194
80 -195 -2 -2 -80 -2 -173 -1 l-170 3 85 198 c46 109 87 195 90 193 3 -3 42
-92 88 -198z" />
        <path fill="#cc2229" d="M20280 20115 l0 -505 85 0 85 0 0 356 c0 218 4 353 9 349 6 -3 132
-163 282 -355 l272 -350 73 0 74 0 0 505 0 505 -85 0 -85 0 0 -345 c0 -190 -3
-345 -7 -345 -5 1 -127 155 -273 343 l-266 342 -82 3 -82 3 0 -506z" />
        <path fill="#cc2229" d="M21777 20613 c-4 -3 -7 -39 -7 -80 l0 -73 289 -2 288 -3 -293 -355
-294 -355 0 -67 0 -68 410 0 410 0 0 80 0 80 -295 2 -295 3 295 357 295 356 0
66 0 66 -398 0 c-219 0 -402 -3 -405 -7z" />
        <path fill="#cc2229" d="M23323 20133 c-117 -269 -215 -496 -219 -505 -6 -16 2 -18 82 -18
l89 0 49 120 50 120 242 0 242 0 49 -117 50 -118 91 -3 c51 -1 92 -1 92 0 0 2
-98 228 -219 503 l-218 500 -84 3 -84 2 -212 -487z m383 75 c46 -106 82 -194
80 -195 -2 -2 -80 -2 -173 -1 l-170 3 85 198 c46 109 87 195 90 193 3 -3 42
-92 88 -198z" />
        <path fill="#cc2229" d="M24690 20115 l0 -505 85 0 85 0 0 356 c0 218 4 353 9 349 6 -3 132
-163 282 -355 l272 -350 73 0 74 0 0 505 0 505 -85 0 -85 0 0 -345 c0 -190 -3
-345 -7 -345 -5 1 -127 155 -273 343 l-266 342 -82 3 -82 3 0 -506z" />
        <path fill="#cc2229" d="M26210 20115 l0 -505 90 0 90 0 -2 503 -3 502 -87 3 -88 3 0 -506z" />
        <path fill="#cc2229" d="M27163 20133 c-117 -269 -215 -496 -219 -505 -6 -16 2 -18 82 -18
l89 0 49 120 50 120 242 0 242 0 49 -117 50 -118 91 -3 c51 -1 92 -1 92 0 0 2
-98 228 -219 503 l-218 500 -84 3 -84 2 -212 -487z m383 75 c46 -106 82 -194
80 -195 -2 -2 -80 -2 -173 -1 l-170 3 85 198 c46 109 87 195 90 193 3 -3 42
-92 88 -198z" />
        <!-- End of Tanzania -->
    </g>
</svg>